<?xml version="1.0" encoding="UTF-8" standalone="no"?>
<!-- Created with Inkscape (http://www.inkscape.org/) -->

<svg
   width="210mm"
   height="297mm"
   viewBox="0 0 210 297"
   version="1.1"
   id="svg1"
   xml:space="preserve"
   inkscape:version="1.4.2 (f4327f4, 2025-05-13)"
   sodipodi:docname="tumthinktank-logo-name-light.svg"
   xmlns:inkscape="http://www.inkscape.org/namespaces/inkscape"
   xmlns:sodipodi="http://sodipodi.sourceforge.net/DTD/sodipodi-0.dtd"
   xmlns="http://www.w3.org/2000/svg"
   xmlns:svg="http://www.w3.org/2000/svg"><sodipodi:namedview
     id="namedview1"
     pagecolor="#ffffff"
     bordercolor="#000000"
     borderopacity="0.25"
     inkscape:showpageshadow="2"
     inkscape:pageopacity="0.0"
     inkscape:pagecheckerboard="0"
     inkscape:deskcolor="#d1d1d1"
     inkscape:document-units="mm"
     inkscape:zoom="1.0467522"
     inkscape:cx="396.94207"
     inkscape:cy="561.73751"
     inkscape:window-width="1420"
     inkscape:window-height="702"
     inkscape:window-x="763"
     inkscape:window-y="319"
     inkscape:window-maximized="0"
     inkscape:current-layer="layer1" /><defs
     id="defs1" /><g
     inkscape:label="Layer 1"
     inkscape:groupmode="layer"
     id="layer1"><g
       id="ttt-group"
       transform="matrix(0.26458333,0,0,0.26458333,61.690541,143.27281)"
       style="fill:#f0f0f0;fill-opacity:1"><g
         id="ttt-name-group"
         style="fill:#f0f0f0;fill-opacity:1"><g
           id="ttt-name-tum"
           style="fill:#f0f0f0;fill-opacity:1"><path
             d="M 103.54,21.926 V 19.96 h 7.854 v 1.966 h -3.293 l 0.514,-0.512 v 8.068 h -2.275 v -8.068 l 0.514,0.512 z"
             id="path1"
             style="fill:#f0f0f0;fill-opacity:1" /><path
             d="m 113.306,19.96 h 2.274 v 5.777 c 0,0.675 0.176,1.162 0.518,1.462 0.346,0.3 0.78,0.446 1.302,0.446 0.522,0 0.972,-0.15 1.319,-0.446 0.346,-0.3 0.521,-0.783 0.521,-1.462 V 19.96 h 2.266 v 5.777 c 0,0.804 -0.158,1.504 -0.475,2.099 -0.318,0.596 -0.781,1.058 -1.394,1.383 -0.614,0.325 -1.357,0.492 -2.241,0.492 -0.884,0 -1.628,-0.162 -2.237,-0.492 -0.609,-0.325 -1.073,-0.787 -1.386,-1.383 -0.313,-0.596 -0.471,-1.295 -0.471,-2.099 V 19.96 Z"
             id="path2"
             style="fill:#f0f0f0;fill-opacity:1" /><path
             d="m 124.461,19.96 h 3.255 l 2.112,5.082 h -0.179 l 2.111,-5.082 h 3.13 v 9.522 h -2.291 v -6.777 h 0.313 l -2.454,5.89 h -1.473 l -2.437,-5.873 h 0.183 v 6.76 h -2.274 V 19.96 Z"
             id="path3"
             style="fill:#f0f0f0;fill-opacity:1" /></g><g
           id="ttt-name-think"
           style="fill:#f0f0f0;fill-opacity:1"><path
             d="m 103.54,37.962 v -1.966 h 7.854 v 1.966 h -3.293 l 0.514,-0.512 v 8.068 H 106.34 V 37.45 l 0.514,0.512 z"
             id="path4"
             style="fill:#f0f0f0;fill-opacity:1" /><path
             d="m 113.385,35.996 h 2.274 v 3.753 h 3.606 v -3.753 h 2.295 v 9.522 h -2.295 v -3.77 h -3.606 v 3.77 h -2.274 z"
             id="path5"
             style="fill:#f0f0f0;fill-opacity:1" /><path
             d="m 124.683,45.518 v -9.522 h 2.274 v 9.522 z"
             id="path6"
             style="fill:#f0f0f0;fill-opacity:1" /><path
             d="m 130.612,35.996 h 2.374 l 3.831,5.761 h -0.158 v -5.761 h 2.274 v 9.522 h -2.195 l -4.232,-6.331 h 0.376 v 6.331 h -2.275 v -9.522 z"
             id="path7"
             style="fill:#f0f0f0;fill-opacity:1" /><path
             d="m 142.619,35.996 h 2.291 v 9.522 h -2.291 z m 5.546,0 h 3.105 l -6.489,6.585 v -3.045 z m -1.514,3.845 4.891,5.677 h -2.909 l -3.535,-4.194 1.548,-1.483 z"
             id="path8"
             style="fill:#f0f0f0;fill-opacity:1" /></g><g
           id="ttt-name-tank"
           style="fill:#f0f0f0;fill-opacity:1"><path
             d="m 103.54,53.999 v -1.966 h 7.854 v 1.966 h -3.293 l 0.514,-0.512 v 8.068 h -2.275 v -8.068 l 0.514,0.512 z"
             id="path9"
             style="fill:#f0f0f0;fill-opacity:1" /><path
             d="m 112.88,61.555 3.213,-9.522 h 2.892 l 3.034,9.522 h -2.395 l -0.518,-1.674 h -3.292 l -0.518,1.674 z m 3.514,-3.358 h 2.195 l -1.081,-3.482 z"
             id="path10"
             style="fill:#f0f0f0;fill-opacity:1" /><path
             d="m 124.432,52.033 h 2.375 l 3.831,5.761 h -0.159 v -5.761 h 2.274 v 9.522 h -2.195 l -4.231,-6.331 h 0.375 v 6.331 h -2.274 v -9.522 z"
             id="path11"
             style="fill:#f0f0f0;fill-opacity:1" /><path
             d="m 136.153,52.033 h 2.291 v 9.522 h -2.291 z m 5.547,0 h 3.105 l -6.49,6.585 v -3.045 l 3.385,-3.541 z m -1.515,3.844 4.891,5.677 h -2.909 l -3.535,-4.194 1.549,-1.483 z"
             id="path12"
             style="fill:#f0f0f0;fill-opacity:1" /></g></g><g
         id="ttt-sign-group"
         style="fill:#f0f0f0;fill-opacity:1"><path
           d="M 51.402,51.682 H 42.171 V 0.366 H 62.825 V 9.58 H 51.403 v 42.102 z"
           id="path13"
           style="fill:#f0f0f0;fill-opacity:1" /><path
           d="M 80.874,61.392 H 71.647 V 10.076 h 20.654 v 9.209 H 80.875 v 42.107 z"
           id="path14"
           style="fill:#f0f0f0;fill-opacity:1" /><g
           id="g16"
           style="fill:#f0f0f0;fill-opacity:1"><path
             d="m 0.551,10.076 h 8.53 v 9.209 H 0.354 L 0.55,10.076 Z"
             id="path15"
             style="fill:#f0f0f0;fill-opacity:1" /><path
             d="M 21.676,61.392 H 12.445 V 10.076 h 20.654 v 9.209 H 21.677 v 42.107 z"
             id="path16"
             style="fill:#f0f0f0;fill-opacity:1" /></g></g></g></g></svg>
