<svg id="ttt-logo" xmlns="http://www.w3.org/2000/svg" version="1.1" viewBox="0 0 152 62">
  <g id="ttt-group">
    <g id="ttt-name-group">
      <g id="ttt-name-tum">
        <path d="M103.54,21.926v-1.966h7.854v1.966h-3.293l.514-.512v8.068h-2.275v-8.068l.514.512h-3.314Z"/>
        <path d="M113.306,19.96h2.274v5.777c0,.675.176,1.162.518,1.462.346.3.78.446,1.302.446s.972-.15,1.319-.446c.346-.3.521-.783.521-1.462v-5.777h2.266v5.777c0,.804-.158,1.504-.475,2.099-.318.596-.781,1.058-1.394,1.383-.614.325-1.357.492-2.241.492s-1.628-.162-2.237-.492c-.609-.325-1.073-.787-1.386-1.383-.313-.596-.471-1.295-.471-2.099v-5.777h.004Z"/>
        <path d="M124.461,19.96h3.255l2.112,5.082h-.179l2.111-5.082h3.13v9.522h-2.291v-6.777h.313l-2.454,5.89h-1.473l-2.437-5.873h.183v6.76h-2.274v-9.522h.004Z"/>
      </g>
      <g id="ttt-name-think">
        <path d="M103.54,37.962v-1.966h7.854v1.966h-3.293l.514-.512v8.068h-2.275v-8.068l.514.512h-3.314Z"/>
        <path d="M113.385,35.996h2.274v3.753h3.606v-3.753h2.295v9.522h-2.295v-3.77h-3.606v3.77h-2.274v-9.522Z"/>
        <path d="M124.683,45.518v-9.522h2.274v9.522h-2.274Z"/>
        <path d="M130.612,35.996h2.374l3.831,5.761h-.158v-5.761h2.274v9.522h-2.195l-4.232-6.331h.376v6.331h-2.275v-9.522h.005Z"/>
        <path d="M142.619,35.996h2.291v9.522h-2.291v-9.522ZM148.165,35.996h3.105l-6.489,6.585v-3.045l3.384-3.54ZM146.651,39.841l4.891,5.677h-2.909l-3.535-4.194,1.548-1.483h.005Z"/>
      </g>
      <g id="ttt-name-tank">
        <path d="M103.54,53.999v-1.966h7.854v1.966h-3.293l.514-.512v8.068h-2.275v-8.068l.514.512h-3.314Z"/>
        <path d="M112.88,61.555l3.213-9.522h2.892l3.034,9.522h-2.395l-.518-1.674h-3.292l-.518,1.674h-2.416ZM116.394,58.197h2.195l-1.081-3.482-1.114,3.482Z"/>
        <path d="M124.432,52.033h2.375l3.831,5.761h-.159v-5.761h2.274v9.522h-2.195l-4.231-6.331h.375v6.331h-2.274v-9.522h.004Z"/>
        <path d="M136.153,52.033h2.291v9.522h-2.291v-9.522ZM141.7,52.033h3.105l-6.49,6.585v-3.045l3.385-3.541ZM140.185,55.877l4.891,5.677h-2.909l-3.535-4.194,1.549-1.483h.004Z"/>
      </g>
    </g>
    <g id="ttt-sign-group">
      <path d="M51.402,51.682h-9.231V.366h20.654v9.214h-11.422v42.102Z"/>
      <path d="M80.874,61.392h-9.227V10.076h20.654v9.209h-11.426v42.107Z"/>
      <g>
        <path d="M.551,10.076h8.53v9.209H.354l.196-9.209Z"/>
        <path d="M21.676,61.392h-9.231V10.076h20.654v9.209h-11.422v42.107Z"/>
      </g>
    </g>
  </g>
</svg>